<svg width="80" height="80" viewBox="0 0 80 80" fill="none" xmlns="http://www.w3.org/2000/svg">
<circle cx="40" cy="40" r="40" fill="white"/>
<path d="M32.2188 50.5625C30.3281 50.5625 28.5703 50.2969 26.9453 49.7656C25.3203 49.2188 23.9062 48.2656 22.7031 46.9062C21.5 45.5469 20.5469 43.7266 19.8438 41.4453C19.1562 39.1484 18.8047 36.3203 18.7891 32.9609C18.7891 29.7109 19.1328 26.9844 19.8203 24.7812C20.5234 22.5781 21.4922 20.8047 22.7266 19.4609C23.9766 18.1016 25.4453 17.1328 27.1328 16.5547C28.8359 15.9766 30.6875 15.6875 32.6875 15.6875C33.9531 15.6875 35.125 15.7656 36.2031 15.9219C37.2969 16.0625 38.2422 16.2188 39.0391 16.3906C39.9766 16.5938 40.8203 16.8203 41.5703 17.0703L41.9453 20.7031C41.1641 20.4219 40.3047 20.1641 39.3672 19.9297C38.5703 19.7578 37.6406 19.5938 36.5781 19.4375C35.5156 19.2812 34.3828 19.2031 33.1797 19.2031C31.6641 19.2031 30.3047 19.4375 29.1016 19.9062C27.8984 20.375 26.875 21.1406 26.0312 22.2031C25.1875 23.2656 24.5391 24.6641 24.0859 26.3984C23.6484 28.1172 23.4297 30.2891 23.4297 32.9141C23.4453 35.3984 23.6406 37.5547 24.0156 39.3828C24.4062 41.1953 24.9844 42.6719 25.75 43.8125C26.5312 44.9375 27.5 45.7578 28.6562 46.2734C29.8281 46.7891 31.1875 47.0391 32.7344 47.0234C34.0312 47.0391 35.2344 46.9688 36.3438 46.8125C37.4531 46.6406 38.4297 46.4297 39.2734 46.1797C40.2422 45.9297 41.1328 45.6484 41.9453 45.3359L41.5469 48.9922C40.7812 49.2891 39.9141 49.5547 38.9453 49.7891C38.1172 49.9922 37.1328 50.1719 35.9922 50.3281C34.8516 50.4844 33.5938 50.5625 32.2188 50.5625Z" fill="#F1CE9A"/>
<path d="M26.9453 49.7656L26.6263 50.7134L26.6346 50.7161L26.9453 49.7656ZM19.8438 41.4453L18.8857 41.7321L18.8881 41.7399L19.8438 41.4453ZM18.7891 32.9609H17.7891L17.7891 32.9656L18.7891 32.9609ZM19.8203 24.7812L18.8676 24.4772L18.8657 24.4834L19.8203 24.7812ZM22.7266 19.4609L21.9905 18.7841L21.9901 18.7844L22.7266 19.4609ZM27.1328 16.5547L26.8114 15.6078L26.8087 15.6087L27.1328 16.5547ZM36.2031 15.9219L36.0597 16.9115L36.0676 16.9127L36.0756 16.9137L36.2031 15.9219ZM39.0391 16.3906L39.2508 15.4133L39.2499 15.4131L39.0391 16.3906ZM41.5703 17.0703L42.565 16.9676L42.4988 16.3257L41.8865 16.1216L41.5703 17.0703ZM41.9453 20.7031L41.6066 21.644L43.1034 22.1829L42.94 20.6004L41.9453 20.7031ZM39.3672 19.9297L39.6097 18.9595L39.5939 18.9556L39.578 18.9522L39.3672 19.9297ZM24.0859 26.3984L23.1184 26.1457L23.1168 26.1518L24.0859 26.3984ZM23.4297 32.9141H22.4297L22.4297 32.9204L23.4297 32.9141ZM24.0156 39.3828L23.036 39.5838L23.0381 39.5935L24.0156 39.3828ZM25.75 43.8125L24.9197 44.3698L24.9241 44.3764L24.9286 44.3829L25.75 43.8125ZM28.6562 46.2734L28.249 47.1868L28.2535 47.1888L28.6562 46.2734ZM32.7344 47.0234L32.7464 46.0235L32.7353 46.0234L32.7243 46.0235L32.7344 47.0234ZM36.3438 46.8125L36.4832 47.8028L36.4969 47.8007L36.3438 46.8125ZM39.2734 46.1797L39.0236 45.2114L39.0064 45.2158L38.9893 45.2209L39.2734 46.1797ZM41.9453 45.3359L42.9394 45.4443L43.1171 43.8138L41.5863 44.4026L41.9453 45.3359ZM41.5469 48.9922L41.9084 49.9245L42.4751 49.7048L42.541 49.1005L41.5469 48.9922ZM38.9453 49.7891L38.7102 48.8171L38.7071 48.8179L38.9453 49.7891ZM32.2188 49.5625C30.4226 49.5625 28.7707 49.3103 27.2561 48.8151L26.6346 50.7161C28.3699 51.2834 30.2337 51.5625 32.2188 51.5625V49.5625ZM27.2643 48.8179C25.8148 48.3301 24.5462 47.4799 23.452 46.2435L21.9543 47.569C23.2663 49.0514 24.8258 50.1074 26.6264 50.7134L27.2643 48.8179ZM23.452 46.2435C22.3679 45.0187 21.4732 43.3369 20.7994 41.1508L18.8881 41.7399C19.6206 44.1163 20.6321 46.075 21.9543 47.569L23.452 46.2435ZM20.8018 41.1586C20.1502 38.9817 19.8044 36.2552 19.7891 32.9563L17.7891 32.9656C17.805 36.3854 18.1623 39.3152 18.8857 41.7321L20.8018 41.1586ZM19.7891 32.9609C19.7891 29.7742 20.127 27.1554 20.7749 25.0791L18.8657 24.4834C18.1386 26.8134 17.7891 29.6477 17.7891 32.9609H19.7891ZM20.773 25.0853C21.4434 22.9847 22.3495 21.3496 23.463 20.1374L21.9901 18.7844C20.6349 20.2598 19.6035 22.1715 18.8677 24.4772L20.773 25.0853ZM23.4627 20.1378C24.604 18.8966 25.9327 18.0229 27.4569 17.5007L26.8087 15.6087C24.9579 16.2427 23.3491 17.3065 21.9905 18.7841L23.4627 20.1378ZM27.4542 17.5016C29.0429 16.9623 30.7847 16.6875 32.6875 16.6875V14.6875C30.5903 14.6875 28.6289 14.9908 26.8114 15.6078L27.4542 17.5016ZM32.6875 16.6875C33.9126 16.6875 35.0359 16.7632 36.0597 16.9115L36.3466 14.9322C35.2141 14.7681 33.9936 14.6875 32.6875 14.6875V16.6875ZM36.0756 16.9137C37.1504 17.0519 38.0666 17.2039 38.8282 17.3681L39.2499 15.4131C38.4178 15.2336 37.4433 15.0731 36.3306 14.93L36.0756 16.9137ZM38.8273 17.3679C39.7366 17.565 40.5447 17.7825 41.2541 18.019L41.8865 16.1216C41.096 15.8581 40.2165 15.6225 39.2508 15.4133L38.8273 17.3679ZM40.5756 17.173L40.9506 20.8058L42.94 20.6004L42.565 16.9676L40.5756 17.173ZM42.284 19.7622C41.4666 19.468 40.5746 19.2008 39.6097 18.9595L39.1247 20.8998C40.0347 21.1274 40.8615 21.3758 41.6066 21.644L42.284 19.7622ZM39.578 18.9522C38.754 18.7744 37.8016 18.6067 36.7236 18.4481L36.4326 20.4269C37.4796 20.5808 38.3866 20.7412 39.1563 20.9072L39.578 18.9522ZM36.7236 18.4481C35.6076 18.284 34.4258 18.2031 33.1797 18.2031V20.2031C34.3398 20.2031 35.4236 20.2785 36.4326 20.4269L36.7236 18.4481ZM33.1797 18.2031C31.5611 18.2031 30.0756 18.4535 28.7385 18.9745L29.4646 20.838C30.5338 20.4215 31.7671 20.2031 33.1797 20.2031V18.2031ZM28.7385 18.9745C27.3619 19.5108 26.1962 20.3874 25.2481 21.5812L26.8144 22.825C27.5538 21.8938 28.435 21.2392 29.4646 20.838L28.7385 18.9745ZM25.2481 21.5812C24.2949 22.7816 23.5959 24.3179 23.1184 26.1457L25.0535 26.6512C25.4822 25.0102 26.0801 23.7497 26.8144 22.825L25.2481 21.5812ZM23.1168 26.1518C22.6516 27.9796 22.4297 30.2416 22.4297 32.9141H24.4297C24.4297 30.3365 24.6453 28.2547 25.055 26.6451L23.1168 26.1518ZM22.4297 32.9204C22.4456 35.4501 22.6444 37.6745 23.036 39.5838L24.9952 39.1819C24.6369 37.4348 24.445 35.3468 24.4297 32.9078L22.4297 32.9204ZM23.0381 39.5935C23.4466 41.4892 24.0635 43.0943 24.9197 44.3698L26.5803 43.2552C25.9052 42.2495 25.3659 40.9015 24.9932 39.1721L23.0381 39.5935ZM24.9286 44.3829C25.8052 45.6451 26.9124 46.5907 28.249 47.1867L29.0635 45.3601C28.0876 44.9249 27.2573 44.2299 26.5714 43.2421L24.9286 44.3829ZM28.2535 47.1888C29.5796 47.7722 31.0846 48.0402 32.7445 48.0234L32.7243 46.0235C31.2904 46.038 30.0766 45.8059 29.059 45.3581L28.2535 47.1888ZM32.7223 48.0234C34.0622 48.0395 35.3166 47.967 36.4832 47.8027L36.2043 45.8223C35.1522 45.9705 34.0003 46.0386 32.7464 46.0235L32.7223 48.0234ZM36.4969 47.8007C37.6391 47.6237 38.661 47.4041 39.5575 47.1385L38.9893 45.2209C38.1984 45.4553 37.2672 45.6575 36.1906 45.8243L36.4969 47.8007ZM39.5233 47.148C40.5237 46.8898 41.4513 46.5973 42.3043 46.2693L41.5863 44.4026C40.8143 44.6995 39.9606 44.9696 39.0236 45.2114L39.5233 47.148ZM40.9512 45.2276L40.5528 48.8839L42.541 49.1005L42.9394 45.4443L40.9512 45.2276ZM41.1853 48.0598C40.4685 48.3378 39.6447 48.591 38.7102 48.8171L39.1805 50.761C40.1834 50.5184 41.094 50.2403 41.9084 49.9245L41.1853 48.0598ZM38.7071 48.8179C37.9221 49.0104 36.9737 49.1843 35.8565 49.3374L36.1279 51.3189C37.292 51.1594 38.3123 50.974 39.1835 50.7603L38.7071 48.8179ZM35.8565 49.3374C34.7685 49.4864 33.5568 49.5625 32.2188 49.5625V51.5625C33.6307 51.5625 34.9347 51.4823 36.1279 51.3189L35.8565 49.3374Z" fill="black"/>
<path d="M45.2188 65.5625C43.3281 65.5625 41.5703 65.2969 39.9453 64.7656C38.3203 64.2188 36.9062 63.2656 35.7031 61.9062C34.5 60.5469 33.5469 58.7266 32.8438 56.4453C32.1562 54.1484 31.8047 51.3203 31.7891 47.9609C31.7891 44.7109 32.1328 41.9844 32.8203 39.7812C33.5234 37.5781 34.4922 35.8047 35.7266 34.4609C36.9766 33.1016 38.4453 32.1328 40.1328 31.5547C41.8359 30.9766 43.6875 30.6875 45.6875 30.6875C46.9531 30.6875 48.125 30.7656 49.2031 30.9219C50.2969 31.0625 51.2422 31.2188 52.0391 31.3906C52.9766 31.5938 53.8203 31.8203 54.5703 32.0703L54.9453 35.7031C54.1641 35.4219 53.3047 35.1641 52.3672 34.9297C51.5703 34.7578 50.6406 34.5938 49.5781 34.4375C48.5156 34.2812 47.3828 34.2031 46.1797 34.2031C44.6641 34.2031 43.3047 34.4375 42.1016 34.9062C40.8984 35.375 39.875 36.1406 39.0312 37.2031C38.1875 38.2656 37.5391 39.6641 37.0859 41.3984C36.6484 43.1172 36.4297 45.2891 36.4297 47.9141C36.4453 50.3984 36.6406 52.5547 37.0156 54.3828C37.4062 56.1953 37.9844 57.6719 38.75 58.8125C39.5312 59.9375 40.5 60.7578 41.6562 61.2734C42.8281 61.7891 44.1875 62.0391 45.7344 62.0234C47.0312 62.0391 48.2344 61.9688 49.3438 61.8125C50.4531 61.6406 51.4297 61.4297 52.2734 61.1797C53.2422 60.9297 54.1328 60.6484 54.9453 60.3359L54.5469 63.9922C53.7812 64.2891 52.9141 64.5547 51.9453 64.7891C51.1172 64.9922 50.1328 65.1719 48.9922 65.3281C47.8516 65.4844 46.5938 65.5625 45.2188 65.5625Z" fill="#F1CE9A"/>
<path d="M39.9453 64.7656L39.6263 65.7134L39.6346 65.7161L39.9453 64.7656ZM32.8438 56.4453L31.8857 56.7321L31.8881 56.7399L32.8438 56.4453ZM31.7891 47.9609H30.7891L30.7891 47.9656L31.7891 47.9609ZM32.8203 39.7812L31.8676 39.4772L31.8657 39.4834L32.8203 39.7812ZM35.7266 34.4609L34.9905 33.7841L34.9901 33.7844L35.7266 34.4609ZM40.1328 31.5547L39.8114 30.6078L39.8087 30.6087L40.1328 31.5547ZM49.2031 30.9219L49.0597 31.9115L49.0676 31.9127L49.0756 31.9137L49.2031 30.9219ZM52.0391 31.3906L52.2508 30.4133L52.2499 30.4131L52.0391 31.3906ZM54.5703 32.0703L55.565 31.9676L55.4988 31.3257L54.8865 31.1216L54.5703 32.0703ZM54.9453 35.7031L54.6066 36.644L56.1034 37.1829L55.94 35.6004L54.9453 35.7031ZM52.3672 34.9297L52.6097 33.9595L52.5939 33.9556L52.578 33.9522L52.3672 34.9297ZM37.0859 41.3984L36.1184 41.1457L36.1168 41.1518L37.0859 41.3984ZM36.4297 47.9141H35.4297L35.4297 47.9204L36.4297 47.9141ZM37.0156 54.3828L36.036 54.5838L36.0381 54.5935L37.0156 54.3828ZM38.75 58.8125L37.9197 59.3698L37.9241 59.3764L37.9286 59.3829L38.75 58.8125ZM41.6562 61.2734L41.249 62.1868L41.2535 62.1888L41.6562 61.2734ZM45.7344 62.0234L45.7464 61.0235L45.7353 61.0234L45.7243 61.0235L45.7344 62.0234ZM49.3438 61.8125L49.4832 62.8028L49.4969 62.8007L49.3438 61.8125ZM52.2734 61.1797L52.0236 60.2114L52.0064 60.2158L51.9893 60.2209L52.2734 61.1797ZM54.9453 60.3359L55.9394 60.4443L56.1171 58.8138L54.5863 59.4026L54.9453 60.3359ZM54.5469 63.9922L54.9084 64.9245L55.4751 64.7048L55.541 64.1005L54.5469 63.9922ZM51.9453 64.7891L51.7102 63.8171L51.7071 63.8179L51.9453 64.7891ZM45.2188 64.5625C43.4226 64.5625 41.7707 64.3103 40.2561 63.8151L39.6346 65.7161C41.3699 66.2834 43.2337 66.5625 45.2188 66.5625V64.5625ZM40.2643 63.8179C38.8148 63.3301 37.5462 62.4799 36.452 61.2435L34.9543 62.569C36.2663 64.0514 37.8258 65.1074 39.6264 65.7134L40.2643 63.8179ZM36.452 61.2435C35.3679 60.0187 34.4732 58.3369 33.7994 56.1508L31.8881 56.7399C32.6206 59.1163 33.6321 61.075 34.9543 62.569L36.452 61.2435ZM33.8018 56.1586C33.1502 53.9817 32.8044 51.2552 32.7891 47.9563L30.7891 47.9656C30.805 51.3854 31.1623 54.3152 31.8857 56.7321L33.8018 56.1586ZM32.7891 47.9609C32.7891 44.7742 33.127 42.1554 33.7749 40.0791L31.8657 39.4834C31.1386 41.8134 30.7891 44.6477 30.7891 47.9609H32.7891ZM33.773 40.0853C34.4434 37.9847 35.3495 36.3496 36.463 35.1374L34.9901 33.7844C33.6349 35.2598 32.6035 37.1715 31.8677 39.4772L33.773 40.0853ZM36.4627 35.1378C37.604 33.8966 38.9327 33.0229 40.4569 32.5007L39.8087 30.6087C37.9579 31.2427 36.3491 32.3065 34.9905 33.7841L36.4627 35.1378ZM40.4542 32.5016C42.0429 31.9623 43.7847 31.6875 45.6875 31.6875V29.6875C43.5903 29.6875 41.6289 29.9908 39.8114 30.6078L40.4542 32.5016ZM45.6875 31.6875C46.9126 31.6875 48.0359 31.7632 49.0597 31.9115L49.3466 29.9322C48.2141 29.7681 46.9936 29.6875 45.6875 29.6875V31.6875ZM49.0756 31.9137C50.1504 32.0519 51.0666 32.2039 51.8282 32.3681L52.2499 30.4131C51.4178 30.2336 50.4433 30.0731 49.3306 29.93L49.0756 31.9137ZM51.8273 32.3679C52.7366 32.565 53.5447 32.7825 54.2541 33.019L54.8865 31.1216C54.096 30.8581 53.2165 30.6225 52.2508 30.4133L51.8273 32.3679ZM53.5756 32.173L53.9506 35.8058L55.94 35.6004L55.565 31.9676L53.5756 32.173ZM55.284 34.7622C54.4666 34.468 53.5746 34.2008 52.6097 33.9595L52.1247 35.8998C53.0347 36.1274 53.8615 36.3758 54.6066 36.644L55.284 34.7622ZM52.578 33.9522C51.754 33.7744 50.8016 33.6067 49.7236 33.4481L49.4326 35.4269C50.4796 35.5808 51.3866 35.7412 52.1563 35.9072L52.578 33.9522ZM49.7236 33.4481C48.6076 33.284 47.4258 33.2031 46.1797 33.2031V35.2031C47.3398 35.2031 48.4236 35.2785 49.4326 35.4269L49.7236 33.4481ZM46.1797 33.2031C44.5611 33.2031 43.0756 33.4535 41.7385 33.9745L42.4646 35.838C43.5338 35.4215 44.7671 35.2031 46.1797 35.2031V33.2031ZM41.7385 33.9745C40.3619 34.5108 39.1962 35.3874 38.2481 36.5812L39.8144 37.825C40.5538 36.8938 41.435 36.2392 42.4646 35.838L41.7385 33.9745ZM38.2481 36.5812C37.2949 37.7816 36.5959 39.3179 36.1184 41.1457L38.0535 41.6512C38.4822 40.0102 39.0801 38.7497 39.8144 37.825L38.2481 36.5812ZM36.1168 41.1518C35.6516 42.9796 35.4297 45.2416 35.4297 47.9141H37.4297C37.4297 45.3365 37.6453 43.2547 38.055 41.6451L36.1168 41.1518ZM35.4297 47.9204C35.4456 50.4501 35.6444 52.6745 36.036 54.5838L37.9952 54.1819C37.6369 52.4348 37.445 50.3468 37.4297 47.9078L35.4297 47.9204ZM36.0381 54.5935C36.4466 56.4892 37.0635 58.0943 37.9197 59.3698L39.5803 58.2552C38.9052 57.2495 38.3659 55.9015 37.9932 54.1721L36.0381 54.5935ZM37.9286 59.3829C38.8052 60.6451 39.9124 61.5907 41.249 62.1867L42.0635 60.3601C41.0876 59.9249 40.2573 59.2299 39.5714 58.2421L37.9286 59.3829ZM41.2535 62.1888C42.5796 62.7722 44.0846 63.0402 45.7445 63.0234L45.7243 61.0235C44.2904 61.038 43.0766 60.8059 42.059 60.3581L41.2535 62.1888ZM45.7223 63.0234C47.0622 63.0395 48.3166 62.967 49.4832 62.8027L49.2043 60.8223C48.1522 60.9705 47.0003 61.0386 45.7464 61.0235L45.7223 63.0234ZM49.4969 62.8007C50.6391 62.6237 51.661 62.4041 52.5575 62.1385L51.9893 60.2209C51.1984 60.4553 50.2672 60.6575 49.1906 60.8243L49.4969 62.8007ZM52.5233 62.148C53.5237 61.8898 54.4513 61.5973 55.3043 61.2693L54.5863 59.4026C53.8143 59.6995 52.9606 59.9696 52.0236 60.2114L52.5233 62.148ZM53.9512 60.2276L53.5528 63.8839L55.541 64.1005L55.9394 60.4443L53.9512 60.2276ZM54.1853 63.0598C53.4685 63.3378 52.6447 63.591 51.7102 63.8171L52.1805 65.761C53.1834 65.5184 54.094 65.2403 54.9084 64.9245L54.1853 63.0598ZM51.7071 63.8179C50.9221 64.0104 49.9737 64.1843 48.8565 64.3374L49.1279 66.3189C50.292 66.1594 51.3123 65.974 52.1835 65.7603L51.7071 63.8179ZM48.8565 64.3374C47.7685 64.4864 46.5568 64.5625 45.2188 64.5625V66.5625C46.6307 66.5625 47.9347 66.4823 49.1279 66.3189L48.8565 64.3374Z" fill="black"/>
<path d="M62.5 67C94 19 35.7739 50.557 24.5 71M16.5 34C78.5528 13.9468 78.7739 13.557 67.5 34" stroke="black"/>
</svg>
