<svg width="205" height="80" viewBox="0 0 205 80" fill="none" xmlns="http://www.w3.org/2000/svg">
<path d="M97.7578 46.2344C96.9701 46.2344 96.2376 46.1237 95.5605 45.9023C94.8835 45.6745 94.2943 45.2773 93.793 44.7109C93.2917 44.1445 92.8945 43.3861 92.6016 42.4355C92.3151 41.4785 92.1686 40.3001 92.1621 38.9004C92.1621 37.5462 92.3053 36.4102 92.5918 35.4922C92.8848 34.5742 93.2884 33.8353 93.8027 33.2754C94.3236 32.709 94.9355 32.3053 95.6387 32.0645C96.3483 31.8236 97.1198 31.7031 97.9531 31.7031C98.4805 31.7031 98.9688 31.7357 99.418 31.8008C99.8737 31.8594 100.268 31.9245 100.6 31.9961C100.99 32.0807 101.342 32.1751 101.654 32.2793L101.811 33.793C101.485 33.6758 101.127 33.5684 100.736 33.4707C100.404 33.3991 100.017 33.3307 99.5742 33.2656C99.1315 33.2005 98.6595 33.168 98.1582 33.168C97.5267 33.168 96.9603 33.2656 96.459 33.4609C95.9577 33.6562 95.5312 33.9753 95.1797 34.418C94.8281 34.8607 94.5579 35.4434 94.3691 36.166C94.1868 36.8822 94.0957 37.7871 94.0957 38.8809C94.1022 39.916 94.1836 40.8145 94.3398 41.5762C94.5026 42.3314 94.7435 42.9466 95.0625 43.4219C95.388 43.8906 95.7917 44.2324 96.2734 44.4473C96.7617 44.6621 97.3281 44.7663 97.9727 44.7598C98.513 44.7663 99.0143 44.737 99.4766 44.6719C99.9388 44.6003 100.346 44.5124 100.697 44.4082C101.101 44.304 101.472 44.1868 101.811 44.0566L101.645 45.5801C101.326 45.7038 100.964 45.8145 100.561 45.9121C100.215 45.9967 99.8053 46.0716 99.3301 46.1367C98.8548 46.2018 98.3307 46.2344 97.7578 46.2344ZM108.402 35.8145C108.533 35.8145 108.66 35.8275 108.783 35.8535C108.907 35.873 109.018 35.8958 109.115 35.9219C109.232 35.9544 109.34 35.9902 109.438 36.0293L109.223 37.4258C109.197 37.4062 109.151 37.3835 109.086 37.3574C109.034 37.3444 108.959 37.3314 108.861 37.3184C108.764 37.2988 108.637 37.2891 108.48 37.2891C108.109 37.2891 107.768 37.3379 107.455 37.4355C107.143 37.5332 106.872 37.6374 106.645 37.748C106.378 37.8783 106.133 38.028 105.912 38.1973V46H104.105V35.9121L105.365 35.8145L105.707 37.0449C106.085 36.6543 106.505 36.3516 106.967 36.1367C107.429 35.9219 107.908 35.8145 108.402 35.8145ZM114.545 44.6719L116.957 35.9316H118.871L115.424 46.5859C115.235 47.1654 115.059 47.6797 114.896 48.1289C114.74 48.5781 114.564 48.9557 114.369 49.2617C114.18 49.5677 113.959 49.7988 113.705 49.9551C113.458 50.1113 113.152 50.1895 112.787 50.1895C112.383 50.1895 112.016 50.1504 111.684 50.0723C111.352 49.9941 111.065 49.9062 110.824 49.8086C110.544 49.6979 110.29 49.571 110.062 49.4277L110.189 48.1973C110.45 48.3014 110.71 48.3893 110.971 48.4609C111.199 48.526 111.443 48.5846 111.703 48.6367C111.97 48.6888 112.227 48.7148 112.475 48.7148C112.618 48.7148 112.738 48.6855 112.836 48.627C112.934 48.5749 113.015 48.4967 113.08 48.3926C113.152 48.2949 113.21 48.1712 113.256 48.0215C113.308 47.8717 113.36 47.6992 113.412 47.5039L113.646 46.459L110.17 35.9316H112.113L114.545 44.6719ZM122.035 35.8145L122.357 36.9473C122.572 36.791 122.797 36.6445 123.031 36.5078C123.272 36.3646 123.533 36.2441 123.812 36.1465C124.092 36.0423 124.395 35.9609 124.721 35.9023C125.053 35.8438 125.421 35.8145 125.824 35.8145C126.384 35.8145 126.882 35.9186 127.318 36.127C127.761 36.3288 128.135 36.6413 128.441 37.0645C128.747 37.4811 128.979 38.015 129.135 38.666C129.298 39.3171 129.379 40.0885 129.379 40.9805C129.379 41.8919 129.285 42.6797 129.096 43.3438C128.907 44.0013 128.646 44.5417 128.314 44.9648C127.989 45.3815 127.602 45.6875 127.152 45.8828C126.71 46.0781 126.231 46.1758 125.717 46.1758C125.268 46.1758 124.857 46.1302 124.486 46.0391C124.115 45.9544 123.793 45.8568 123.52 45.7461C123.207 45.6224 122.924 45.4759 122.67 45.3066V49.8965L120.863 50.0527V35.9219L122.035 35.8145ZM122.67 44.0664C122.898 44.2031 123.145 44.3268 123.412 44.4375C123.64 44.5286 123.91 44.6133 124.223 44.6914C124.535 44.7695 124.874 44.8086 125.238 44.8086C125.622 44.8086 125.958 44.7402 126.244 44.6035C126.537 44.4603 126.781 44.2324 126.977 43.9199C127.172 43.6009 127.318 43.1908 127.416 42.6895C127.514 42.1882 127.562 41.5859 127.562 40.8828C127.562 39.5938 127.387 38.6595 127.035 38.0801C126.69 37.4941 126.173 37.2012 125.482 37.2012C125.092 37.2012 124.727 37.2467 124.389 37.3379C124.05 37.4225 123.754 37.5169 123.5 37.6211C123.201 37.7383 122.924 37.875 122.67 38.0312V44.0664ZM134.809 46.1758C134.366 46.1758 133.992 46.1204 133.686 46.0098C133.38 45.8991 133.132 45.7103 132.943 45.4434C132.755 45.1764 132.615 44.8216 132.523 44.3789C132.439 43.9297 132.396 43.373 132.396 42.709V36.9473H131.01V35.9316H132.465L132.719 32.8652L134.174 32.582V35.9316H136.674V36.9473H134.203V43.0898C134.203 43.4414 134.213 43.7344 134.232 43.9688C134.258 44.1966 134.307 44.3789 134.379 44.5156C134.457 44.6523 134.564 44.75 134.701 44.8086C134.844 44.8607 135.036 44.8867 135.277 44.8867C135.453 44.8867 135.622 44.8802 135.785 44.8672C135.948 44.8477 136.094 44.8249 136.225 44.7988C136.374 44.7728 136.511 44.7435 136.635 44.7109L136.479 45.9707C136.361 46.0163 136.218 46.0521 136.049 46.0781C135.906 46.1042 135.73 46.127 135.521 46.1465C135.32 46.166 135.082 46.1758 134.809 46.1758ZM142.582 35.8145C143.331 35.8145 143.982 35.9382 144.535 36.1855C145.095 36.4329 145.557 36.7845 145.922 37.2402C146.286 37.6895 146.557 38.2331 146.732 38.8711C146.915 39.5091 147.006 40.2253 147.006 41.0195C147.006 41.7747 146.915 42.4714 146.732 43.1094C146.557 43.7474 146.286 44.2943 145.922 44.75C145.557 45.1992 145.095 45.5508 144.535 45.8047C143.982 46.0521 143.331 46.1758 142.582 46.1758C141.827 46.1758 141.169 46.0521 140.609 45.8047C140.056 45.5508 139.597 45.1992 139.232 44.75C138.868 44.2943 138.594 43.7474 138.412 43.1094C138.236 42.4714 138.148 41.7747 138.148 41.0195C138.148 40.2253 138.236 39.5091 138.412 38.8711C138.594 38.2331 138.868 37.6895 139.232 37.2402C139.597 36.7845 140.056 36.4329 140.609 36.1855C141.169 35.9382 141.827 35.8145 142.582 35.8145ZM142.582 44.8086C143.07 44.8086 143.48 44.7174 143.812 44.5352C144.145 44.3529 144.411 44.0924 144.613 43.7539C144.822 43.4154 144.968 43.0117 145.053 42.543C145.144 42.0677 145.189 41.5534 145.189 41C145.189 40.388 145.144 39.8477 145.053 39.3789C144.962 38.9102 144.812 38.5163 144.604 38.1973C144.402 37.8717 144.135 37.6243 143.803 37.4551C143.471 37.2858 143.064 37.2012 142.582 37.2012C142.094 37.2012 141.684 37.2858 141.352 37.4551C141.02 37.6243 140.749 37.8717 140.541 38.1973C140.339 38.5163 140.193 38.9102 140.102 39.3789C140.017 39.8477 139.975 40.388 139.975 41C139.975 41.5534 140.017 42.0677 140.102 42.543C140.193 43.0117 140.339 43.4154 140.541 43.7539C140.749 44.0924 141.02 44.3529 141.352 44.5352C141.684 44.7174 142.094 44.8086 142.582 44.8086ZM159.809 46.2344C159.021 46.2344 158.288 46.1237 157.611 45.9023C156.934 45.6745 156.345 45.2773 155.844 44.7109C155.342 44.1445 154.945 43.3861 154.652 42.4355C154.366 41.4785 154.219 40.3001 154.213 38.9004C154.213 37.5462 154.356 36.4102 154.643 35.4922C154.936 34.5742 155.339 33.8353 155.854 33.2754C156.374 32.709 156.986 32.3053 157.689 32.0645C158.399 31.8236 159.171 31.7031 160.004 31.7031C160.531 31.7031 161.02 31.7357 161.469 31.8008C161.924 31.8594 162.318 31.9245 162.65 31.9961C163.041 32.0807 163.393 32.1751 163.705 32.2793L163.861 33.793C163.536 33.6758 163.178 33.5684 162.787 33.4707C162.455 33.3991 162.068 33.3307 161.625 33.2656C161.182 33.2005 160.71 33.168 160.209 33.168C159.577 33.168 159.011 33.2656 158.51 33.4609C158.008 33.6562 157.582 33.9753 157.23 34.418C156.879 34.8607 156.609 35.4434 156.42 36.166C156.238 36.8822 156.146 37.7871 156.146 38.8809C156.153 39.916 156.234 40.8145 156.391 41.5762C156.553 42.3314 156.794 42.9466 157.113 43.4219C157.439 43.8906 157.842 44.2324 158.324 44.4473C158.812 44.6621 159.379 44.7663 160.023 44.7598C160.564 44.7663 161.065 44.737 161.527 44.6719C161.99 44.6003 162.396 44.5124 162.748 44.4082C163.152 44.304 163.523 44.1868 163.861 44.0566L163.695 45.5801C163.376 45.7038 163.015 45.8145 162.611 45.9121C162.266 45.9967 161.856 46.0716 161.381 46.1367C160.906 46.2018 160.382 46.2344 159.809 46.2344ZM169.965 35.8145C170.714 35.8145 171.365 35.9382 171.918 36.1855C172.478 36.4329 172.94 36.7845 173.305 37.2402C173.669 37.6895 173.939 38.2331 174.115 38.8711C174.298 39.5091 174.389 40.2253 174.389 41.0195C174.389 41.7747 174.298 42.4714 174.115 43.1094C173.939 43.7474 173.669 44.2943 173.305 44.75C172.94 45.1992 172.478 45.5508 171.918 45.8047C171.365 46.0521 170.714 46.1758 169.965 46.1758C169.21 46.1758 168.552 46.0521 167.992 45.8047C167.439 45.5508 166.98 45.1992 166.615 44.75C166.251 44.2943 165.977 43.7474 165.795 43.1094C165.619 42.4714 165.531 41.7747 165.531 41.0195C165.531 40.2253 165.619 39.5091 165.795 38.8711C165.977 38.2331 166.251 37.6895 166.615 37.2402C166.98 36.7845 167.439 36.4329 167.992 36.1855C168.552 35.9382 169.21 35.8145 169.965 35.8145ZM169.965 44.8086C170.453 44.8086 170.863 44.7174 171.195 44.5352C171.527 44.3529 171.794 44.0924 171.996 43.7539C172.204 43.4154 172.351 43.0117 172.436 42.543C172.527 42.0677 172.572 41.5534 172.572 41C172.572 40.388 172.527 39.8477 172.436 39.3789C172.344 38.9102 172.195 38.5163 171.986 38.1973C171.785 37.8717 171.518 37.6243 171.186 37.4551C170.854 37.2858 170.447 37.2012 169.965 37.2012C169.477 37.2012 169.066 37.2858 168.734 37.4551C168.402 37.6243 168.132 37.8717 167.924 38.1973C167.722 38.5163 167.576 38.9102 167.484 39.3789C167.4 39.8477 167.357 40.388 167.357 41C167.357 41.5534 167.4 42.0677 167.484 42.543C167.576 43.0117 167.722 43.4154 167.924 43.7539C168.132 44.0924 168.402 44.3529 168.734 44.5352C169.066 44.7174 169.477 44.8086 169.965 44.8086ZM176.977 46V35.9316H178.773V46H176.977ZM178.812 32.25V34.0273H176.928V32.25H178.812ZM181.859 35.9316L183.119 35.8145L183.383 36.9961C183.539 36.8789 183.731 36.752 183.959 36.6152C184.193 36.472 184.457 36.3418 184.75 36.2246C185.049 36.1074 185.378 36.0098 185.736 35.9316C186.101 35.8535 186.488 35.8145 186.898 35.8145C187.413 35.8145 187.868 35.8893 188.266 36.0391C188.669 36.1823 189.011 36.4167 189.291 36.7422C189.571 37.0612 189.783 37.4811 189.926 38.002C190.076 38.5228 190.15 39.1576 190.15 39.9062V46H188.344V40.2969C188.344 39.763 188.314 39.3008 188.256 38.9102C188.197 38.5195 188.1 38.1973 187.963 37.9434C187.826 37.6895 187.641 37.5039 187.406 37.3867C187.178 37.263 186.892 37.2012 186.547 37.2012C186.182 37.2012 185.827 37.25 185.482 37.3477C185.144 37.4453 184.838 37.5495 184.564 37.6602C184.252 37.7904 183.952 37.9401 183.666 38.1094V46H181.859V35.9316ZM192.602 38.4121C192.608 37.9368 192.699 37.5365 192.875 37.2109C193.051 36.8854 193.295 36.6185 193.607 36.4102C193.92 36.1953 194.294 36.0423 194.73 35.9512C195.167 35.8535 195.655 35.8079 196.195 35.8145C196.605 35.821 196.977 35.847 197.309 35.8926C197.647 35.9316 197.94 35.9772 198.188 36.0293C198.474 36.0944 198.731 36.166 198.959 36.2441L199.154 37.6211C198.92 37.5495 198.663 37.4844 198.383 37.4258C198.142 37.3737 197.855 37.3281 197.523 37.2891C197.198 37.2435 196.84 37.2174 196.449 37.2109C196.104 37.2109 195.795 37.2272 195.521 37.2598C195.255 37.2923 195.027 37.3542 194.838 37.4453C194.656 37.5299 194.516 37.6504 194.418 37.8066C194.32 37.9629 194.271 38.1745 194.271 38.4414C194.271 38.6823 194.304 38.8776 194.369 39.0273C194.434 39.1706 194.555 39.304 194.73 39.4277C194.913 39.5449 195.16 39.6556 195.473 39.7598C195.785 39.8639 196.186 39.9779 196.674 40.1016C197.24 40.2513 197.722 40.4141 198.119 40.5898C198.516 40.7591 198.839 40.9674 199.086 41.2148C199.34 41.4557 199.522 41.7487 199.633 42.0938C199.75 42.4323 199.805 42.8164 199.799 43.2461C199.792 43.6823 199.714 44.0794 199.564 44.4375C199.421 44.7956 199.197 45.1048 198.891 45.3652C198.591 45.6191 198.21 45.8177 197.748 45.9609C197.286 46.1042 196.736 46.1758 196.098 46.1758C195.564 46.1758 195.098 46.1465 194.701 46.0879C194.311 46.0293 193.979 45.9642 193.705 45.8926C193.393 45.8145 193.122 45.7201 192.895 45.6094L192.709 44.2227C192.982 44.3268 193.288 44.418 193.627 44.4961C193.92 44.5677 194.262 44.6328 194.652 44.6914C195.049 44.75 195.482 44.7826 195.951 44.7891C196.674 44.7956 197.211 44.6849 197.562 44.457C197.914 44.2227 198.093 43.832 198.1 43.2852C198.1 43.0768 198.07 42.8783 198.012 42.6895C197.953 42.5007 197.833 42.3379 197.65 42.2012C197.475 42.0579 197.221 41.9277 196.889 41.8105C196.563 41.6934 196.137 41.5697 195.609 41.4395C195.134 41.3223 194.708 41.1855 194.33 41.0293C193.952 40.873 193.633 40.681 193.373 40.4531C193.113 40.2253 192.914 39.9486 192.777 39.623C192.647 39.291 192.589 38.8874 192.602 38.4121Z" fill="#EFEFEF"/>
<circle cx="40" cy="40" r="40" fill="white"/>
<path d="M62.5 67C94 19 35.7739 50.557 24.5 71M16.5 34C78.5528 13.9468 78.7739 13.557 67.5 34" stroke="black"/>
<path d="M32.2188 50.5625C30.3281 50.5625 28.5703 50.2969 26.9453 49.7656C25.3203 49.2188 23.9062 48.2656 22.7031 46.9062C21.5 45.5469 20.5469 43.7266 19.8438 41.4453C19.1562 39.1484 18.8047 36.3203 18.7891 32.9609C18.7891 29.7109 19.1328 26.9844 19.8203 24.7812C20.5234 22.5781 21.4922 20.8047 22.7266 19.4609C23.9766 18.1016 25.4453 17.1328 27.1328 16.5547C28.8359 15.9766 30.6875 15.6875 32.6875 15.6875C33.9531 15.6875 35.125 15.7656 36.2031 15.9219C37.2969 16.0625 38.2422 16.2188 39.0391 16.3906C39.9766 16.5938 40.8203 16.8203 41.5703 17.0703L41.9453 20.7031C41.1641 20.4219 40.3047 20.1641 39.3672 19.9297C38.5703 19.7578 37.6406 19.5938 36.5781 19.4375C35.5156 19.2812 34.3828 19.2031 33.1797 19.2031C31.6641 19.2031 30.3047 19.4375 29.1016 19.9062C27.8984 20.375 26.875 21.1406 26.0312 22.2031C25.1875 23.2656 24.5391 24.6641 24.0859 26.3984C23.6484 28.1172 23.4297 30.2891 23.4297 32.9141C23.4453 35.3984 23.6406 37.5547 24.0156 39.3828C24.4062 41.1953 24.9844 42.6719 25.75 43.8125C26.5312 44.9375 27.5 45.7578 28.6562 46.2734C29.8281 46.7891 31.1875 47.0391 32.7344 47.0234C34.0312 47.0391 35.2344 46.9688 36.3438 46.8125C37.4531 46.6406 38.4297 46.4297 39.2734 46.1797C40.2422 45.9297 41.1328 45.6484 41.9453 45.3359L41.5469 48.9922C40.7812 49.2891 39.9141 49.5547 38.9453 49.7891C38.1172 49.9922 37.1328 50.1719 35.9922 50.3281C34.8516 50.4844 33.5938 50.5625 32.2188 50.5625Z" fill="#F1CE9A"/>
<path d="M26.9453 49.7656L26.6263 50.7134L26.6346 50.7161L26.9453 49.7656ZM19.8438 41.4453L18.8857 41.7321L18.8881 41.7399L19.8438 41.4453ZM18.7891 32.9609H17.7891L17.7891 32.9656L18.7891 32.9609ZM19.8203 24.7812L18.8676 24.4772L18.8657 24.4834L19.8203 24.7812ZM22.7266 19.4609L21.9905 18.7841L21.9901 18.7844L22.7266 19.4609ZM27.1328 16.5547L26.8114 15.6078L26.8087 15.6087L27.1328 16.5547ZM36.2031 15.9219L36.0597 16.9115L36.0676 16.9127L36.0756 16.9137L36.2031 15.9219ZM39.0391 16.3906L39.2508 15.4133L39.2499 15.4131L39.0391 16.3906ZM41.5703 17.0703L42.565 16.9676L42.4988 16.3257L41.8865 16.1216L41.5703 17.0703ZM41.9453 20.7031L41.6066 21.644L43.1034 22.1829L42.94 20.6004L41.9453 20.7031ZM39.3672 19.9297L39.6097 18.9595L39.5939 18.9556L39.578 18.9522L39.3672 19.9297ZM24.0859 26.3984L23.1184 26.1457L23.1168 26.1518L24.0859 26.3984ZM23.4297 32.9141L22.4297 32.9141L22.4297 32.9204L23.4297 32.9141ZM24.0156 39.3828L23.036 39.5838L23.0381 39.5935L24.0156 39.3828ZM25.75 43.8125L24.9197 44.3698L24.9241 44.3764L24.9286 44.3829L25.75 43.8125ZM28.6562 46.2734L28.249 47.1868L28.2535 47.1888L28.6562 46.2734ZM32.7344 47.0234L32.7464 46.0235L32.7353 46.0234L32.7243 46.0235L32.7344 47.0234ZM36.3438 46.8125L36.4832 47.8028L36.4969 47.8007L36.3438 46.8125ZM39.2734 46.1797L39.0236 45.2114L39.0064 45.2158L38.9893 45.2209L39.2734 46.1797ZM41.9453 45.3359L42.9394 45.4443L43.1171 43.8138L41.5863 44.4026L41.9453 45.3359ZM41.5469 48.9922L41.9084 49.9245L42.4751 49.7048L42.541 49.1005L41.5469 48.9922ZM38.9453 49.7891L38.7102 48.8171L38.7071 48.8179L38.9453 49.7891ZM32.2188 49.5625C30.4226 49.5625 28.7707 49.3103 27.2561 48.8151L26.6346 50.7161C28.3699 51.2834 30.2337 51.5625 32.2188 51.5625V49.5625ZM27.2643 48.8179C25.8148 48.3301 24.5462 47.4799 23.452 46.2435L21.9543 47.569C23.2663 49.0514 24.8258 50.1074 26.6264 50.7134L27.2643 48.8179ZM23.452 46.2435C22.368 45.0187 21.4732 43.3369 20.7994 41.1508L18.8881 41.7399C19.6206 44.1163 20.632 46.075 21.9543 47.569L23.452 46.2435ZM20.8018 41.1586C20.1502 38.9817 19.8044 36.2552 19.7891 32.9563L17.7891 32.9656C17.805 36.3854 18.1623 39.3152 18.8857 41.7321L20.8018 41.1586ZM19.7891 32.9609C19.7891 29.7742 20.127 27.1554 20.7749 25.0791L18.8657 24.4834C18.1386 26.8134 17.7891 29.6477 17.7891 32.9609H19.7891ZM20.773 25.0853C21.4434 22.9847 22.3495 21.3496 23.463 20.1374L21.9901 18.7844C20.6349 20.2598 19.6035 22.1715 18.8677 24.4772L20.773 25.0853ZM23.4627 20.1378C24.604 18.8966 25.9327 18.0229 27.4569 17.5007L26.8087 15.6087C24.9579 16.2427 23.3491 17.3065 21.9905 18.7841L23.4627 20.1378ZM27.4542 17.5016C29.0429 16.9623 30.7847 16.6875 32.6875 16.6875V14.6875C30.5903 14.6875 28.6289 14.9908 26.8114 15.6078L27.4542 17.5016ZM32.6875 16.6875C33.9126 16.6875 35.0359 16.7632 36.0597 16.9115L36.3466 14.9322C35.2141 14.7681 33.9936 14.6875 32.6875 14.6875V16.6875ZM36.0756 16.9137C37.1504 17.0519 38.0666 17.2039 38.8282 17.3681L39.2499 15.4131C38.4178 15.2336 37.4433 15.0731 36.3306 14.93L36.0756 16.9137ZM38.8273 17.3679C39.7366 17.565 40.5447 17.7825 41.2541 18.019L41.8865 16.1216C41.096 15.8581 40.2165 15.6225 39.2508 15.4133L38.8273 17.3679ZM40.5756 17.173L40.9506 20.8058L42.94 20.6004L42.565 16.9676L40.5756 17.173ZM42.284 19.7622C41.4666 19.468 40.5746 19.2008 39.6097 18.9595L39.1247 20.8998C40.0347 21.1274 40.8615 21.3758 41.6066 21.644L42.284 19.7622ZM39.578 18.9522C38.754 18.7744 37.8016 18.6067 36.7236 18.4481L36.4326 20.4269C37.4796 20.5808 38.3866 20.7412 39.1563 20.9072L39.578 18.9522ZM36.7236 18.4481C35.6076 18.284 34.4258 18.2031 33.1797 18.2031V20.2031C34.3398 20.2031 35.4236 20.2785 36.4326 20.4269L36.7236 18.4481ZM33.1797 18.2031C31.5611 18.2031 30.0756 18.4535 28.7385 18.9745L29.4646 20.838C30.5338 20.4215 31.7671 20.2031 33.1797 20.2031V18.2031ZM28.7385 18.9745C27.3619 19.5108 26.1962 20.3874 25.2481 21.5812L26.8144 22.825C27.5538 21.8938 28.435 21.2392 29.4646 20.838L28.7385 18.9745ZM25.2481 21.5812C24.2949 22.7816 23.5959 24.3179 23.1184 26.1457L25.0535 26.6512C25.4822 25.0102 26.0801 23.7497 26.8144 22.825L25.2481 21.5812ZM23.1168 26.1518C22.6516 27.9796 22.4297 30.2416 22.4297 32.9141H24.4297C24.4297 30.3365 24.6453 28.2547 25.055 26.6451L23.1168 26.1518ZM22.4297 32.9204C22.4456 35.4501 22.6444 37.6745 23.036 39.5838L24.9952 39.1819C24.6369 37.4348 24.445 35.3468 24.4297 32.9078L22.4297 32.9204ZM23.0381 39.5935C23.4466 41.4892 24.0635 43.0943 24.9197 44.3698L26.5803 43.2552C25.9052 42.2495 25.3659 40.9015 24.9932 39.1721L23.0381 39.5935ZM24.9286 44.3829C25.8052 45.6451 26.9124 46.5907 28.249 47.1867L29.0635 45.3601C28.0876 44.9249 27.2573 44.2299 26.5714 43.2421L24.9286 44.3829ZM28.2535 47.1888C29.5796 47.7722 31.0846 48.0402 32.7445 48.0234L32.7243 46.0235C31.2904 46.038 30.0766 45.8059 29.059 45.3581L28.2535 47.1888ZM32.7223 48.0234C34.0622 48.0395 35.3166 47.967 36.4832 47.8027L36.2043 45.8223C35.1522 45.9705 34.0003 46.0386 32.7464 46.0235L32.7223 48.0234ZM36.4969 47.8007C37.6391 47.6237 38.661 47.4041 39.5575 47.1385L38.9893 45.2209C38.1984 45.4553 37.2672 45.6575 36.1906 45.8243L36.4969 47.8007ZM39.5233 47.148C40.5237 46.8898 41.4513 46.5973 42.3043 46.2693L41.5863 44.4026C40.8143 44.6995 39.9606 44.9696 39.0236 45.2114L39.5233 47.148ZM40.9512 45.2276L40.5528 48.8839L42.541 49.1005L42.9394 45.4443L40.9512 45.2276ZM41.1853 48.0598C40.4685 48.3378 39.6447 48.591 38.7102 48.8171L39.1805 50.761C40.1834 50.5184 41.094 50.2403 41.9084 49.9245L41.1853 48.0598ZM38.7071 48.8179C37.9221 49.0104 36.9737 49.1843 35.8565 49.3374L36.1279 51.3189C37.292 51.1594 38.3123 50.974 39.1835 50.7603L38.7071 48.8179ZM35.8565 49.3374C34.7685 49.4864 33.5568 49.5625 32.2188 49.5625V51.5625C33.6307 51.5625 34.9347 51.4823 36.1279 51.3189L35.8565 49.3374Z" fill="black"/>
<path d="M45.2188 65.5625C43.3281 65.5625 41.5703 65.2969 39.9453 64.7656C38.3203 64.2188 36.9062 63.2656 35.7031 61.9062C34.5 60.5469 33.5469 58.7266 32.8438 56.4453C32.1562 54.1484 31.8047 51.3203 31.7891 47.9609C31.7891 44.7109 32.1328 41.9844 32.8203 39.7812C33.5234 37.5781 34.4922 35.8047 35.7266 34.4609C36.9766 33.1016 38.4453 32.1328 40.1328 31.5547C41.8359 30.9766 43.6875 30.6875 45.6875 30.6875C46.9531 30.6875 48.125 30.7656 49.2031 30.9219C50.2969 31.0625 51.2422 31.2188 52.0391 31.3906C52.9766 31.5938 53.8203 31.8203 54.5703 32.0703L54.9453 35.7031C54.1641 35.4219 53.3047 35.1641 52.3672 34.9297C51.5703 34.7578 50.6406 34.5938 49.5781 34.4375C48.5156 34.2812 47.3828 34.2031 46.1797 34.2031C44.6641 34.2031 43.3047 34.4375 42.1016 34.9062C40.8984 35.375 39.875 36.1406 39.0312 37.2031C38.1875 38.2656 37.5391 39.6641 37.0859 41.3984C36.6484 43.1172 36.4297 45.2891 36.4297 47.9141C36.4453 50.3984 36.6406 52.5547 37.0156 54.3828C37.4062 56.1953 37.9844 57.6719 38.75 58.8125C39.5312 59.9375 40.5 60.7578 41.6562 61.2734C42.8281 61.7891 44.1875 62.0391 45.7344 62.0234C47.0312 62.0391 48.2344 61.9688 49.3438 61.8125C50.4531 61.6406 51.4297 61.4297 52.2734 61.1797C53.2422 60.9297 54.1328 60.6484 54.9453 60.3359L54.5469 63.9922C53.7812 64.2891 52.9141 64.5547 51.9453 64.7891C51.1172 64.9922 50.1328 65.1719 48.9922 65.3281C47.8516 65.4844 46.5938 65.5625 45.2188 65.5625Z" fill="#F1CE9A"/>
<path d="M39.9453 64.7656L39.6263 65.7134L39.6346 65.7161L39.9453 64.7656ZM32.8438 56.4453L31.8857 56.7321L31.8881 56.7399L32.8438 56.4453ZM31.7891 47.9609H30.7891L30.7891 47.9656L31.7891 47.9609ZM32.8203 39.7812L31.8676 39.4772L31.8657 39.4834L32.8203 39.7812ZM35.7266 34.4609L34.9905 33.7841L34.9901 33.7844L35.7266 34.4609ZM40.1328 31.5547L39.8114 30.6078L39.8087 30.6087L40.1328 31.5547ZM49.2031 30.9219L49.0597 31.9115L49.0676 31.9127L49.0756 31.9137L49.2031 30.9219ZM52.0391 31.3906L52.2508 30.4133L52.2499 30.4131L52.0391 31.3906ZM54.5703 32.0703L55.565 31.9676L55.4988 31.3257L54.8865 31.1216L54.5703 32.0703ZM54.9453 35.7031L54.6066 36.644L56.1034 37.1829L55.94 35.6004L54.9453 35.7031ZM52.3672 34.9297L52.6097 33.9595L52.5939 33.9556L52.578 33.9522L52.3672 34.9297ZM37.0859 41.3984L36.1184 41.1457L36.1168 41.1518L37.0859 41.3984ZM36.4297 47.9141L35.4297 47.9141L35.4297 47.9204L36.4297 47.9141ZM37.0156 54.3828L36.036 54.5838L36.0381 54.5935L37.0156 54.3828ZM38.75 58.8125L37.9197 59.3698L37.9241 59.3764L37.9286 59.3829L38.75 58.8125ZM41.6562 61.2734L41.249 62.1868L41.2535 62.1888L41.6562 61.2734ZM45.7344 62.0234L45.7464 61.0235L45.7353 61.0234L45.7243 61.0235L45.7344 62.0234ZM49.3438 61.8125L49.4832 62.8028L49.4969 62.8007L49.3438 61.8125ZM52.2734 61.1797L52.0236 60.2114L52.0064 60.2158L51.9893 60.2209L52.2734 61.1797ZM54.9453 60.3359L55.9394 60.4443L56.1171 58.8138L54.5863 59.4026L54.9453 60.3359ZM54.5469 63.9922L54.9084 64.9245L55.4751 64.7048L55.541 64.1005L54.5469 63.9922ZM51.9453 64.7891L51.7102 63.8171L51.7071 63.8179L51.9453 64.7891ZM45.2188 64.5625C43.4226 64.5625 41.7707 64.3103 40.2561 63.8151L39.6346 65.7161C41.3699 66.2834 43.2337 66.5625 45.2188 66.5625V64.5625ZM40.2643 63.8179C38.8148 63.3301 37.5462 62.4799 36.452 61.2435L34.9543 62.569C36.2663 64.0514 37.8258 65.1074 39.6264 65.7134L40.2643 63.8179ZM36.452 61.2435C35.368 60.0187 34.4732 58.3369 33.7994 56.1508L31.8881 56.7399C32.6206 59.1163 33.632 61.075 34.9543 62.569L36.452 61.2435ZM33.8018 56.1586C33.1502 53.9817 32.8044 51.2552 32.7891 47.9563L30.7891 47.9656C30.805 51.3854 31.1623 54.3152 31.8857 56.7321L33.8018 56.1586ZM32.7891 47.9609C32.7891 44.7742 33.127 42.1554 33.7749 40.0791L31.8657 39.4834C31.1386 41.8134 30.7891 44.6477 30.7891 47.9609H32.7891ZM33.773 40.0853C34.4434 37.9847 35.3495 36.3496 36.463 35.1374L34.9901 33.7844C33.6349 35.2598 32.6035 37.1715 31.8677 39.4772L33.773 40.0853ZM36.4627 35.1378C37.604 33.8966 38.9327 33.0229 40.4569 32.5007L39.8087 30.6087C37.9579 31.2427 36.3491 32.3065 34.9905 33.7841L36.4627 35.1378ZM40.4542 32.5016C42.0429 31.9623 43.7847 31.6875 45.6875 31.6875V29.6875C43.5903 29.6875 41.6289 29.9908 39.8114 30.6078L40.4542 32.5016ZM45.6875 31.6875C46.9126 31.6875 48.0359 31.7632 49.0597 31.9115L49.3466 29.9322C48.2141 29.7681 46.9936 29.6875 45.6875 29.6875V31.6875ZM49.0756 31.9137C50.1504 32.0519 51.0666 32.2039 51.8282 32.3681L52.2499 30.4131C51.4178 30.2336 50.4433 30.0731 49.3306 29.93L49.0756 31.9137ZM51.8273 32.3679C52.7366 32.565 53.5447 32.7825 54.2541 33.019L54.8865 31.1216C54.096 30.8581 53.2165 30.6225 52.2508 30.4133L51.8273 32.3679ZM53.5756 32.173L53.9506 35.8058L55.94 35.6004L55.565 31.9676L53.5756 32.173ZM55.284 34.7622C54.4666 34.468 53.5746 34.2008 52.6097 33.9595L52.1247 35.8998C53.0347 36.1274 53.8615 36.3758 54.6066 36.644L55.284 34.7622ZM52.578 33.9522C51.754 33.7744 50.8016 33.6067 49.7236 33.4481L49.4326 35.4269C50.4796 35.5808 51.3866 35.7412 52.1563 35.9072L52.578 33.9522ZM49.7236 33.4481C48.6076 33.284 47.4258 33.2031 46.1797 33.2031V35.2031C47.3398 35.2031 48.4236 35.2785 49.4326 35.4269L49.7236 33.4481ZM46.1797 33.2031C44.5611 33.2031 43.0756 33.4535 41.7385 33.9745L42.4646 35.838C43.5338 35.4215 44.7671 35.2031 46.1797 35.2031V33.2031ZM41.7385 33.9745C40.3619 34.5108 39.1962 35.3874 38.2481 36.5812L39.8144 37.825C40.5538 36.8938 41.435 36.2392 42.4646 35.838L41.7385 33.9745ZM38.2481 36.5812C37.2949 37.7816 36.5959 39.3179 36.1184 41.1457L38.0535 41.6512C38.4822 40.0102 39.0801 38.7497 39.8144 37.825L38.2481 36.5812ZM36.1168 41.1518C35.6516 42.9796 35.4297 45.2416 35.4297 47.9141H37.4297C37.4297 45.3365 37.6453 43.2547 38.055 41.6451L36.1168 41.1518ZM35.4297 47.9204C35.4456 50.4501 35.6444 52.6745 36.036 54.5838L37.9952 54.1819C37.6369 52.4348 37.445 50.3468 37.4297 47.9078L35.4297 47.9204ZM36.0381 54.5935C36.4466 56.4892 37.0635 58.0943 37.9197 59.3698L39.5803 58.2552C38.9052 57.2495 38.3659 55.9015 37.9932 54.1721L36.0381 54.5935ZM37.9286 59.3829C38.8052 60.6451 39.9124 61.5907 41.249 62.1867L42.0635 60.3601C41.0876 59.9249 40.2573 59.2299 39.5714 58.2421L37.9286 59.3829ZM41.2535 62.1888C42.5796 62.7722 44.0846 63.0402 45.7445 63.0234L45.7243 61.0235C44.2904 61.038 43.0766 60.8059 42.059 60.3581L41.2535 62.1888ZM45.7223 63.0234C47.0622 63.0395 48.3166 62.967 49.4832 62.8027L49.2043 60.8223C48.1522 60.9705 47.0003 61.0386 45.7464 61.0235L45.7223 63.0234ZM49.4969 62.8007C50.6391 62.6237 51.661 62.4041 52.5575 62.1385L51.9893 60.2209C51.1984 60.4553 50.2672 60.6575 49.1906 60.8243L49.4969 62.8007ZM52.5233 62.148C53.5237 61.8898 54.4513 61.5973 55.3043 61.2693L54.5863 59.4026C53.8143 59.6995 52.9606 59.9696 52.0236 60.2114L52.5233 62.148ZM53.9512 60.2276L53.5528 63.8839L55.541 64.1005L55.9394 60.4443L53.9512 60.2276ZM54.1853 63.0598C53.4685 63.3378 52.6447 63.591 51.7102 63.8171L52.1805 65.761C53.1834 65.5184 54.094 65.2403 54.9084 64.9245L54.1853 63.0598ZM51.7071 63.8179C50.9221 64.0104 49.9737 64.1843 48.8565 64.3374L49.1279 66.3189C50.292 66.1594 51.3123 65.974 52.1835 65.7603L51.7071 63.8179ZM48.8565 64.3374C47.7685 64.4864 46.5568 64.5625 45.2188 64.5625V66.5625C46.6307 66.5625 47.9347 66.4823 49.1279 66.3189L48.8565 64.3374Z" fill="black"/>
</svg>
